{"title":"Lone.Survivor.2013.BRRip.480p.x264.AAC-VYTO [P2PDL]","uid":9993992,"size":447343581,"categoryP":"video","categoryS":"movies","magnet":"?xt=urn:btih:a53287fa6ad5c3c73c335126874356fda7224170&amp;dn=Lone.Survivor.2013.BRRip.480p.x264.AAC-VYTO+%5BP2PDL%5D&amp;tr=udp%3A%2F%2Ftracker.openbittorrent.com%3A80&amp;tr=udp%3A%2F%2Fopen.demonii.com%3A1337&amp;tr=udp%3A%2F%2Ftracker.coppersurfer.tk%3A6969&amp;tr=udp%3A%2F%2Fexodus.desync.com%3A6969","seeders":2,"leechers":0,"uploader":"ValidusVyto","files":-1,"time":1397890307,"description":"     /   /      /   / |           | /  __    \n    /   /      /   /  `---|  |----`|  |  |  | \n        /     _    _/       |  |     |  |  |  | \n       /        |  |         |  |     |  `--'  | \n    __/         |__|         |__|      ______/  \n                                                  \nPresenting Small Encodes With Quality For Years!\n                                                                                                   \n                                                                                                   \n\nLone.Survivor.2013.BRRip.480p.x264.AAC-VYTO\n\n\nGenre: Action | Biography | Drama &lt;a href=&quot;\nhttp://www.imdb.com/title/tt1091191/&quot; rel=&quot;nofollow&quot; target=&quot;_NEW&quot;&gt;\nhttp://www.imdb.com/title/tt1091191/&lt;/a&gt;\n\n\nFormat                         : MPEG-4\nFile size                      : 421 MiB\nDuration                       : 2h 1mn\nOverall bit rate               : 486 Kbps\n\nVideo\nFormat                         : AVC\nDuration                       : 2h 1mn\nBit rate                       : 443 Kbps\nWidth                          : 720 pixels\nHeight                         : 304 pixels\nDisplay aspect ratio           : 2.40:1\nFrame rate mode                : Constant\nFrame rate                     : 24.000 fps\nBit depth                      : 8 bits\nStream size                    : 384 MiB (91%)\nWriting library                : x264 core 142 r2409 d6b4e63\n\nAudio\nFormat                         : AAC\nBit rate mode                  : Variable\nBit rate                       : 40.0 Kbps\nChannel(s)                     : 2 channels\nChannel positions              : Front: L R\nSampling rate                  : 48.0 KHz\nStream size                    : 34.6 MiB (8%)\nLanguage                       : English\n\nSubtitle                       : Yes (English)\n &lt;a href=&quot;\nhttp://ultraimg.com/images/s6m0M.png&quot; rel=&quot;nofollow&quot; target=&quot;_NEW&quot;&gt;\nhttp://ultraimg.com/images/s6m0M.png&lt;/a&gt; &lt;a href=&quot;\nhttp://ultraimg.com/images/NSgd1.png&quot; rel=&quot;nofollow&quot; target=&quot;_NEW&quot;&gt;\nhttp://ultraimg.com/images/NSgd1.png&lt;/a&gt; &lt;a href=&quot;\nhttp://ultraimg.com/images/xUPC.png&quot; rel=&quot;nofollow&quot; target=&quot;_NEW&quot;&gt;\nhttp://ultraimg.com/images/xUPC.png&lt;/a&gt; &lt;a href=&quot;\nhttp://ultraimg.com/images/JPrvG.png&quot; rel=&quot;nofollow&quot; target=&quot;_NEW&quot;&gt;\nhttp://ultraimg.com/images/JPrvG.png&lt;/a&gt; &lt;a href=&quot;\nhttp://ultraimg.com/images/mKG8.png&quot; rel=&quot;nofollow&quot; target=&quot;_NEW&quot;&gt;\nhttp://ultraimg.com/images/mKG8.png&lt;/a&gt;\n\n\n----------------------------------------------------------------------------------------------------\n\n\nRecommend to you to use latest version of VLC player. Install K-Lite Codec Pack or shark007 codecs\nin case of any kind of problem in playback (For non-VLC Media Player users). Alternatively, install\nCore AVC codecs, the fastest decoder that there is coupled with Community Center Codec Pack and play\non Windows Media Player Classic. Check sample to be sure.\n\nEncoder Notes:Looking For Early Access To Anything You Can Provide DVDScr, R5, DVDR, BluRay, Direct\nAudio, Music Releases and Seedboxes. We require dedicated servers, so as to do more \nand fast releases of movies.","torrent":{"xt":"urn:btih:a53287fa6ad5c3c73c335126874356fda7224170","amp;dn":"Lone.Survivor.2013.BRRip.480p.x264.AAC-VYTO+%5BP2PDL%5D","amp;tr":["udp%3A%2F%2Ftracker.openbittorrent.com%3A80","udp%3A%2F%2Fopen.demonii.com%3A1337","udp%3A%2F%2Ftracker.coppersurfer.tk%3A6969","udp%3A%2F%2Fexodus.desync.com%3A6969"],"infoHash":"a53287fa6ad5c3c73c335126874356fda7224170","infoHashBuffer":{"type":"Buffer","data":[165,50,135,250,106,213,195,199,60,51,81,38,135,67,86,253,167,34,65,112]},"announce":[],"urlList":[]}}